<?xml version="1.0" encoding="UTF-8" standalone="no"?><!DOCTYPE svg PUBLIC "-//W3C//DTD SVG 1.1//EN" "http://www.w3.org/Graphics/SVG/1.1/DTD/svg11.dtd"><svg width="100%" height="100%" viewBox="0 0 3000 2084" version="1.1" xmlns="http://www.w3.org/2000/svg" xmlns:xlink="http://www.w3.org/1999/xlink" xml:space="preserve" xmlns:serif="http://www.serif.com/" style="fill-rule:evenodd;clip-rule:evenodd;stroke-linejoin:round;stroke-miterlimit:2;"><rect id="Enviate-Logomark-Colour--Dark-Mode-" serif:id="Enviate Logomark Colour (Dark Mode)" x="-0" y="0" width="2997.92" height="2083.33" style="fill:none;"/><clipPath id="_clip1"><rect id="Enviate-Logomark-Colour--Dark-Mode-1" serif:id="Enviate Logomark Colour (Dark Mode)" x="-0" y="0" width="2997.92" height="2083.33"/></clipPath><g clip-path="url(#_clip1)"><g><path d="M1105.74,299.086l-457.425,741.597c-10.282,16.671 -28.033,27.296 -47.583,28.482l-536.892,32.584c-22.431,1.361 -43.752,-9.886 -55.293,-29.168c-11.541,-19.282 -11.381,-43.388 0.417,-62.514l522.272,-846.732c47.875,-77.617 124.621,-133.036 213.356,-154.066c88.735,-21.03 182.189,-5.949 259.804,41.927l101.344,62.512l101.344,-62.512c77.615,-47.876 171.069,-62.957 259.804,-41.927c88.735,21.03 165.481,76.449 213.356,154.066l522.272,846.732c11.798,19.126 11.958,43.232 0.417,62.514c-11.541,19.282 -32.862,30.529 -55.293,29.168l-536.892,-32.584c-19.55,-1.186 -37.301,-11.811 -47.583,-28.482l-457.425,-741.597Z" style="fill:#e97451;"/><path d="M1892.31,1969.63l-101.343,62.511c-77.616,47.876 -171.07,62.957 -259.805,41.927c-88.734,-21.03 -165.481,-76.449 -213.356,-154.065l-522.272,-846.732c-11.797,-19.127 -11.958,-43.232 -0.417,-62.514c11.541,-19.282 32.862,-30.53 55.293,-29.168l536.892,32.583c19.551,1.187 37.301,11.811 47.584,28.482l457.424,741.597l457.425,-741.597c10.282,-16.671 28.033,-27.295 47.583,-28.482l536.893,-32.583c22.43,-1.362 43.751,9.886 55.292,29.168c11.542,19.282 11.381,43.387 -0.417,62.514l-522.272,846.732c-47.875,77.616 -124.621,133.035 -213.356,154.065c-88.735,21.03 -182.189,5.949 -259.804,-41.927l-101.344,-62.511Zm-164.542,-39.95l81.713,-50.403l-460.654,-746.833c-0,-0 -389.95,-23.666 -389.95,-23.666l461.389,748.025c31.113,50.442 80.99,86.458 138.658,100.125c57.667,13.667 118.402,3.866 168.844,-27.248Zm329.085,0c50.441,31.114 111.176,40.915 168.844,27.248c57.668,-13.667 107.544,-49.683 138.657,-100.126l461.389,-748.024l-389.949,23.666l-460.655,746.833l81.714,50.403Z" style="fill:#d3d8d4;"/></g></g></svg>